<svg id="Layer_1" data-name="Layer 1" xmlns="http://www.w3.org/2000/svg" viewBox="0 0 800 797.3"><defs><style>.cls-1{fill:#fff;}</style></defs><title>logo-white</title><path class="cls-1" d="M745.94,778.73a106.33,106.33,0,0,0-101.47-75,105.25,105.25,0,0,0-14.68,1V638.31H676.6a63.91,63.91,0,0,0,63.83-63.84V89.37A63.91,63.91,0,0,0,676.6,25.53H563.83A63.91,63.91,0,0,0,500,89.37V327.21L401.84,2.7,389.51,36.17h-.14v.39L310.31,251.19c-5.73-49.54-16.74-95-32.38-132.5-25.07-60.07-59.54-93.16-97.08-93.16s-72,33.09-97.08,93.16c-23.83,57.14-37,132.86-37,213.23S59.94,488,83.77,545.14c22.68,54.35,53.06,86.6,86.44,92.26v68.53a76.49,76.49,0,0,0-9.64,14.67,71.18,71.18,0,0,0-94.22,58.13H0V800H800V778.73Zm-22.56,0H564.3l7-11.92a84.83,84.83,0,0,1,152,11.92Zm-327.51,0,1.84-24a77,77,0,0,1,153.84,5.87v.11c0,.21,0,.43,0,.64l-.14,17.41Zm-326.6-406,101,73.1v95.55L85.65,482.89c-8.52-33.5-14.09-70.84-16.38-110.13Zm239.56-56,80.53,61.44v93l-114-63.75ZM608.52,190.13V269l-87.24-52.35V113ZM719.16,463.8,629.8,509.54V423.17l89.36-53.36ZM521.28,493l87.24,38.34V617H563.84a42.6,42.6,0,0,1-42.55-42.55Zm87.24-95.87L521.28,345V241.43l87.24,52.35ZM629.8,295.39l89.36-46.85V345L629.8,398.37Zm89.36-70.87L629.8,271.37V192.2l89.36-72.88ZM608.52,421.88v86.19l-87.24-38.34V369.79ZM500,536.16H410.65V496.32L500,456.76ZM215.13,557.43h33.62c-16.85,32.5-36.88,52.85-57.25,58.17V568.46ZM228,536.16,268,427.73l121.4,67.91v40.52Zm182.61-275,37-33.64,25.16,83.18-62.15,42.17Zm0-28.76V105.27L440.81,205Zm-21.27,119L316.52,295.9,345.57,217l43.8,43.86ZM204.31,539l-12.81,6V446.93L249,417.57ZM170.22,419.57l-102-73.86q-.14-6.87-.13-13.81a668.26,668.26,0,0,1,7.34-100.16L170.23,336ZM272.48,557.43H389.37v154a97.33,97.33,0,0,0-9,20.71,76.75,76.75,0,0,0-46.19-15.58,75.75,75.75,0,0,0-34.1,8A77.19,77.19,0,0,0,191.5,688.2V637.39c30.77-5.22,59-33,81-80Zm336,152.6a107.27,107.27,0,0,0-39.12,24.83,98.31,98.31,0,0,0-158.76-49V557.43H500v17a63.91,63.91,0,0,0,63.84,63.83h44.68Zm68.08-93H629.79V533.42l89.36-45.73v86.77A42.6,42.6,0,0,1,676.6,617ZM719.15,89.35v2.5l-89.36,72.87V46.79H676.6a42.59,42.59,0,0,1,42.55,42.55ZM563.84,46.79h44.68V161.71l-87-76.94a42.62,42.62,0,0,1,42.31-38ZM500,433.47,410.64,473V378.58L479.25,332,500,400.66ZM389.37,230.76,353.67,195l35.7-96.9ZM259.87,388.14,191.5,423v-86.5l96.83-90.12c2.15,16.93,3.67,34.39,4.51,52.23Zm24.64-167.25-93,86.57V212.37L260,131.14c10.57,26.36,18.8,56.76,24.47,89.74ZM250.4,109.58l-58.9,69.81V48.18C212.55,53.67,233.21,75.21,250.4,109.58Zm-80.18-61.4V179.39l-58.91-69.81C128.5,75.21,149.17,53.67,170.22,48.18Zm-68.55,83,68.54,81.23v92l-90.1-99.13c5.45-27,12.69-52,21.56-74.09Zm1.74,405.77q-4.32-10.33-8.13-21.52l74.94,51.86v48.35c-24.39-6.36-48.26-34.24-66.81-78.69ZM137,737.84a49.9,49.9,0,0,1,24.12,6.21l11.26,6.23,4-12.24a55.85,55.85,0,0,1,107.56,5l3.65,16.2,13.19-10.09a55.13,55.13,0,0,1,77.83,11l13.72,18.52H87.87A50,50,0,0,1,137,737.83Z" transform="translate(0 -2.7)"/></svg>